<svg xmlns="http://www.w3.org/2000/svg" width="519" height="518.999" viewBox="0 0 519 518.999">
  <g id="Groupe_25" data-name="Groupe 25" transform="translate(-1175 -4351.5)">
    <g id="Groupe_19" data-name="Groupe 19" transform="translate(1233 4346.322)">
      <circle id="Ellipse_1" data-name="Ellipse 1" cx="86.5" cy="86.5" r="86.5" transform="translate(115 178.178)"/>
      <ellipse id="Ellipse_2" data-name="Ellipse 2" cx="29" cy="29.5" rx="29" ry="29.5" transform="translate(174 236.178)" fill="#e7fe98"/>
    </g>
    <g id="Groupe_20" data-name="Groupe 20" transform="translate(1060 4346.322)">
      <circle id="Ellipse_1-2" data-name="Ellipse 1" cx="86.5" cy="86.5" r="86.5" transform="translate(115 178.178)" fill="#e7fe98"/>
      <ellipse id="Ellipse_2-2" data-name="Ellipse 2" cx="29" cy="29.5" rx="29" ry="29.5" transform="translate(174 236.178)"/>
    </g>
    <g id="Groupe_21" data-name="Groupe 21" transform="translate(1406 4346.322)">
      <circle id="Ellipse_1-3" data-name="Ellipse 1" cx="86.5" cy="86.5" r="86.5" transform="translate(115 178.178)" fill="#e7fe98"/>
      <ellipse id="Ellipse_2-3" data-name="Ellipse 2" cx="29" cy="29.5" rx="29" ry="29.5" transform="translate(174 236.178)"/>
    </g>
    <path id="Soustraction_1" data-name="Soustraction 1" d="M2076-4507h-.015a86.094,86.094,0,0,1-17.317-1.756,85.228,85.228,0,0,1-16.143-5.041,85.892,85.892,0,0,1-14.608-7.975,86.765,86.765,0,0,1-12.728-10.562,87.034,87.034,0,0,1-10.5-12.8,86.708,86.708,0,0,1-7.929-14.693,86.452,86.452,0,0,1-5.011-16.237A87.632,87.632,0,0,1,1990-4593.5a87.621,87.621,0,0,1,1.747-17.433,86.43,86.43,0,0,1,5.011-16.237,86.671,86.671,0,0,1,7.929-14.693,87.025,87.025,0,0,1,10.5-12.8,86.765,86.765,0,0,1,12.728-10.562,85.858,85.858,0,0,1,14.608-7.975,85.223,85.223,0,0,1,16.143-5.041A86.2,86.2,0,0,1,2076-4680Z" transform="translate(-642 9031.5)"/>
    <path id="Soustraction_2" data-name="Soustraction 2" d="M2076-4507h-.015a86.094,86.094,0,0,1-17.317-1.756,85.228,85.228,0,0,1-16.143-5.041,85.892,85.892,0,0,1-14.608-7.975,86.765,86.765,0,0,1-12.728-10.562,87.034,87.034,0,0,1-10.5-12.8,86.708,86.708,0,0,1-7.929-14.693,86.452,86.452,0,0,1-5.011-16.237A87.632,87.632,0,0,1,1990-4593.5a87.621,87.621,0,0,1,1.747-17.433,86.43,86.43,0,0,1,5.011-16.237,86.671,86.671,0,0,1,7.929-14.693,87.025,87.025,0,0,1,10.5-12.8,86.765,86.765,0,0,1,12.728-10.562,85.858,85.858,0,0,1,14.608-7.975,85.223,85.223,0,0,1,16.143-5.041A86.2,86.2,0,0,1,2076-4680Z" transform="translate(3510 190.5) rotate(180)"/>
    <path id="Soustraction_3" data-name="Soustraction 3" d="M2076-4507h-.015a86.094,86.094,0,0,1-17.317-1.756,85.228,85.228,0,0,1-16.143-5.041,85.892,85.892,0,0,1-14.608-7.975,86.765,86.765,0,0,1-12.728-10.562,87.034,87.034,0,0,1-10.5-12.8,86.708,86.708,0,0,1-7.929-14.693,86.452,86.452,0,0,1-5.011-16.237A87.632,87.632,0,0,1,1990-4593.5a87.621,87.621,0,0,1,1.747-17.433,86.43,86.43,0,0,1,5.011-16.237,86.671,86.671,0,0,1,7.929-14.693,87.025,87.025,0,0,1,10.5-12.8,86.765,86.765,0,0,1,12.728-10.562,85.858,85.858,0,0,1,14.608-7.975,85.223,85.223,0,0,1,16.143-5.041A86.2,86.2,0,0,1,2076-4680Z" transform="translate(3510 -155.5) rotate(180)" fill="#e7fe98"/>
    <path id="Soustraction_4" data-name="Soustraction 4" d="M2076-4507h-.015a86.094,86.094,0,0,1-17.317-1.756,85.228,85.228,0,0,1-16.143-5.041,85.892,85.892,0,0,1-14.608-7.975,86.765,86.765,0,0,1-12.728-10.562,87.034,87.034,0,0,1-10.5-12.8,86.708,86.708,0,0,1-7.929-14.693,86.452,86.452,0,0,1-5.011-16.237A87.632,87.632,0,0,1,1990-4593.5a87.621,87.621,0,0,1,1.747-17.433,86.43,86.43,0,0,1,5.011-16.237,86.671,86.671,0,0,1,7.929-14.693,87.025,87.025,0,0,1,10.5-12.8,86.765,86.765,0,0,1,12.728-10.562,85.858,85.858,0,0,1,14.608-7.975,85.223,85.223,0,0,1,16.143-5.041A86.2,86.2,0,0,1,2076-4680Z" transform="translate(-642 9377.5)" fill="#e7fe98"/>
  </g>
</svg>
